<?xml version="1.0" standalone="no"?>
<!DOCTYPE svg PUBLIC "-//W3C//DTD SVG 20010904//EN"
 "http://www.w3.org/TR/2001/REC-SVG-20010904/DTD/svg10.dtd">
<svg version="1.0" xmlns="http://www.w3.org/2000/svg"
 width="128.000000pt" height="128.000000pt" viewBox="0 0 128.000000 128.000000"
 preserveAspectRatio="xMidYMid meet">
<metadata>
Created by potrace 1.15, written by Peter Selinger 2001-2017
</metadata>
<g transform="translate(0.000000,128.000000) scale(0.100000,-0.100000)"
fill="#000000" stroke="none">
<path d="M571 1130 c-89 -19 -183 -96 -222 -184 -16 -37 -23 -77 -27 -158 -5
-103 -6 -108 -27 -108 -11 0 -30 -6 -41 -14 -18 -14 -19 -28 -19 -256 0 -228
1 -242 19 -256 16 -11 86 -14 386 -14 360 0 367 0 386 21 18 19 19 39 19 249
0 208 -2 230 -19 248 -10 12 -30 22 -45 24 l-26 3 -5 115 c-4 93 -9 124 -28
162 -28 56 -98 123 -155 148 -52 23 -138 31 -196 20z m149 -142 c26 -13 57
-41 74 -65 26 -38 29 -52 34 -142 l5 -101 -192 0 -191 0 0 78 c0 131 32 196
115 233 54 25 102 24 155 -3z m-39 -404 c58 -30 69 -104 22 -156 -14 -16 -13
-25 10 -100 19 -60 23 -86 15 -95 -15 -18 -162 -18 -177 0 -8 10 -4 34 14 95
l25 81 -26 38 c-28 42 -27 82 4 116 33 38 69 44 113 21z"/>
</g>
</svg>
